<svg width="41" height="41" viewBox="0 0 41 41" fill="none" xmlns="http://www.w3.org/2000/svg">
<rect x="2" y="2" width="37" height="37" rx="10" fill="#F5A5C7"/>
<rect x="0.5" y="0.5" width="40" height="40" rx="11.5" stroke="#F5A5C7" stroke-dasharray="4 2"/>
<path d="M26.0636 26.086V28H14.9976V26.504L21.2676 20.454C22.0303 19.7207 22.5436 19.09 22.8076 18.562C23.0716 18.0193 23.2036 17.4767 23.2036 16.934C23.2036 16.1273 22.9176 15.504 22.3456 15.064C21.7883 14.6093 20.9816 14.382 19.9256 14.382C18.2243 14.382 16.9116 14.9393 15.9876 16.054L14.4916 14.756C15.0929 14.0227 15.8776 13.4507 16.8456 13.04C17.8283 12.6293 18.9209 12.424 20.1236 12.424C21.7369 12.424 23.0203 12.8127 23.9736 13.59C24.9269 14.3527 25.4036 15.394 25.4036 16.714C25.4036 17.5353 25.2276 18.3127 24.8756 19.046C24.5236 19.7793 23.8563 20.6153 22.8736 21.554L18.1656 26.086H26.0636Z" fill="white"/>
</svg>
