<svg width="41" height="41" viewBox="0 0 41 41" fill="none" xmlns="http://www.w3.org/2000/svg">
<rect x="2" y="2" width="37" height="37" rx="10" fill="#F5A5C7"/>
<rect x="0.5" y="0.5" width="40" height="40" rx="11.5" stroke="#F5A5C7" stroke-dasharray="4 2"/>
<path d="M21.1571 19.068C22.6677 19.2147 23.8191 19.684 24.6111 20.476C25.4031 21.2533 25.7991 22.2507 25.7991 23.468C25.7991 24.348 25.5791 25.1473 25.1391 25.866C24.6991 26.57 24.0391 27.1347 23.1591 27.56C22.2937 27.9707 21.2304 28.176 19.9691 28.176C18.8691 28.176 17.8131 28.0147 16.8011 27.692C15.7891 27.3547 14.9604 26.8927 14.3151 26.306L15.3271 24.568C15.8551 25.0667 16.5297 25.47 17.3511 25.778C18.1724 26.0713 19.0451 26.218 19.9691 26.218C21.1131 26.218 22.0004 25.976 22.6311 25.492C23.2764 25.008 23.5991 24.3407 23.5991 23.49C23.5991 22.6393 23.2837 21.9793 22.6531 21.51C22.0224 21.0407 21.0691 20.806 19.7931 20.806H18.5611V19.266L22.4331 14.514H15.0191V12.6H25.1831V14.096L21.1571 19.068Z" fill="white"/>
</svg>
